<svg width="884" height="256" viewBox="0 0 884 256" fill="none" xmlns="http://www.w3.org/2000/svg">
<path d="M13.068 41.432C19.44 41.432 23.688 35.888 23.688 27.572C23.688 19.292 19.404 13.748 13.032 13.748C6.66 13.748 2.412 19.292 2.412 27.572C2.412 35.852 6.696 41.432 13.068 41.432ZM13.068 38.156C8.748 38.156 5.94 33.944 5.94 27.572C5.94 21.2 8.748 17.024 13.032 17.024C17.352 17.024 20.16 21.2 20.16 27.572C20.16 33.98 17.352 38.156 13.068 38.156Z" fill="white"/>
<path d="M876.662 41H880.226V14.18H871.586V17.24H876.662V41Z" fill="white"/>
<path d="M2.988 82H6.516V55.18H2.988V82ZM20.9042 82.432C23.7482 82.432 26.2682 81.244 27.7082 79.156V82H30.9842V54.748H27.6002V65.188C26.0882 63.28 23.7482 62.164 20.9042 62.164C15.3962 62.164 11.2922 66.52 11.2922 72.316C11.2922 78.076 15.3962 82.432 20.9042 82.432ZM21.1922 79.192C17.5202 79.192 14.8202 76.24 14.8202 72.316C14.8202 68.356 17.5562 65.404 21.1922 65.404C24.8282 65.404 27.6002 68.392 27.6002 72.316C27.6002 76.24 24.8282 79.192 21.1922 79.192ZM45.0942 82.432C49.0542 82.432 52.1862 80.308 53.3742 77.608L50.5662 76.168C49.4502 78.04 47.7222 79.372 45.1302 79.372C41.8542 79.372 39.0822 77.032 38.9022 73.288H53.7342C53.8422 72.712 53.9142 72.028 53.9142 71.488C53.9142 66.664 50.5302 62.164 44.8062 62.164C39.4422 62.164 35.3742 66.412 35.3742 72.244C35.3742 78.076 39.5142 82.432 45.0942 82.432ZM44.8062 65.152C47.7942 65.152 50.1702 67.312 50.2782 70.408H38.9742C39.4422 67.132 41.8902 65.152 44.8062 65.152ZM63.6863 82.432C66.5303 82.432 68.8703 81.28 70.2383 79.48V82H73.5143V68.824C73.5143 64.9 70.4183 62.164 65.9902 62.164C62.5343 62.164 59.2583 64.18 58.1783 66.844L61.0943 68.356C61.8863 66.52 63.6503 65.26 65.9183 65.26C68.4383 65.26 70.1663 66.736 70.1663 68.824V69.724L63.5423 70.804C59.1503 71.524 57.2063 73.864 57.2063 76.924C57.2063 80.2 59.8703 82.432 63.6863 82.432ZM60.7343 76.816C60.7343 75.16 61.7783 73.936 64.2983 73.504L70.1663 72.532V73.756C70.1663 77.032 67.7183 79.588 64.0823 79.588C62.1383 79.588 60.7343 78.4 60.7343 76.816Z" fill="white"/>
<path d="M2.988 164H11.772C19.908 164 25.2 158.6 25.2 150.572C25.2 142.508 19.908 137.18 11.772 137.18H2.988V164ZM6.516 160.76V140.42H11.808C17.712 140.42 21.528 144.344 21.528 150.572C21.528 156.8 17.748 160.76 11.808 160.76H6.516ZM29.2756 164H32.6236V152.444C32.6236 149.348 34.4596 147.548 37.1956 147.548H38.8876V144.38H37.6996C35.3236 144.38 33.5596 145.208 32.5516 146.9V144.596H29.2756V164ZM50.7895 164.432C54.7495 164.432 57.8815 162.308 59.0695 159.608L56.2615 158.168C55.1455 160.04 53.4175 161.372 50.8255 161.372C47.5495 161.372 44.7775 159.032 44.5975 155.288H59.4295C59.5375 154.712 59.6095 154.028 59.6095 153.488C59.6095 148.664 56.2255 144.164 50.5015 144.164C45.1375 144.164 41.0695 148.412 41.0695 154.244C41.0695 160.076 45.2095 164.432 50.7895 164.432ZM50.5015 147.152C53.4895 147.152 55.8655 149.312 55.9735 152.408H44.6695C45.1375 149.132 47.5855 147.152 50.5015 147.152ZM69.3816 164.432C72.2256 164.432 74.5656 163.28 75.9336 161.48V164H79.2096V150.824C79.2096 146.9 76.1136 144.164 71.6856 144.164C68.2296 144.164 64.9536 146.18 63.8736 148.844L66.7896 150.356C67.5816 148.52 69.3456 147.26 71.6136 147.26C74.1336 147.26 75.8616 148.736 75.8616 150.824V151.724L69.2376 152.804C64.8456 153.524 62.9016 155.864 62.9016 158.924C62.9016 162.2 65.5656 164.432 69.3816 164.432ZM66.4296 158.816C66.4296 157.16 67.4736 155.936 69.9936 155.504L75.8616 154.532V155.756C75.8616 159.032 73.4136 161.588 69.7776 161.588C67.8336 161.588 66.4296 160.4 66.4296 158.816ZM84.4006 164H87.7486V152.516C87.7486 149.348 89.6926 147.404 92.2846 147.404C94.9126 147.404 96.7486 149.312 96.7486 152.516V164H100.133V152.516C100.133 149.348 102.041 147.404 104.669 147.404C107.261 147.404 109.133 149.312 109.133 152.516V164H112.517V151.436C112.517 147.26 109.277 144.164 105.281 144.164C102.725 144.164 100.457 145.388 99.1966 147.692C98.0446 145.532 95.7406 144.164 93.0766 144.164C90.7726 144.164 88.7926 145.172 87.6766 147.008V144.596H84.4006V164Z" fill="white"/>
<path d="M2.988 205H6.516V178.18H2.988V205ZM12.0842 205H15.4322V193.516C15.4322 190.348 17.4122 188.404 20.1482 188.404C22.8842 188.404 24.7922 190.312 24.7922 193.516V205H28.1762V192.436C28.1762 188.26 25.0442 185.164 20.9042 185.164C18.4922 185.164 16.5122 186.172 15.3602 187.972V185.596H12.0842V205ZM41.967 205.432C45.783 205.432 49.059 203.2 50.283 200.212L47.295 198.7C46.359 200.824 44.451 202.192 41.967 202.192C38.403 202.192 35.703 199.24 35.703 195.316C35.703 191.32 38.403 188.404 41.967 188.404C44.415 188.404 46.395 189.808 47.295 191.824L50.283 190.384C49.059 187.36 45.747 185.164 41.967 185.164C36.243 185.164 32.175 189.484 32.175 195.28C32.175 201.04 36.243 205.432 41.967 205.432ZM63.5864 205.432C67.5464 205.432 70.6784 203.308 71.8664 200.608L69.0584 199.168C67.9424 201.04 66.2144 202.372 63.6224 202.372C60.3464 202.372 57.5744 200.032 57.3944 196.288H72.2264C72.3344 195.712 72.4064 195.028 72.4064 194.488C72.4064 189.664 69.0224 185.164 63.2984 185.164C57.9344 185.164 53.8664 189.412 53.8664 195.244C53.8664 201.076 58.0064 205.432 63.5864 205.432ZM63.2984 188.152C66.2864 188.152 68.6624 190.312 68.7704 193.408H57.4664C57.9344 190.132 60.3824 188.152 63.2984 188.152ZM76.7717 212.2H80.1197V202.3C81.5957 204.316 84.0437 205.432 86.8157 205.432C92.3597 205.432 96.4637 201.076 96.4637 195.316C96.4637 189.52 92.3597 185.164 86.8517 185.164C83.9357 185.164 81.5597 186.352 80.0477 188.332V185.596H76.7717V212.2ZM86.5637 202.192C82.9277 202.192 80.1197 199.24 80.1197 195.316C80.1197 191.392 82.9277 188.404 86.5637 188.404C90.1997 188.404 92.8997 191.356 92.8997 195.316C92.8997 199.24 90.2357 202.192 86.5637 202.192ZM108.386 205.216C108.926 205.216 109.79 205.144 110.402 205V202.048C109.97 202.12 109.43 202.156 109.07 202.156C106.694 202.156 105.83 200.896 105.83 198.916V188.8H110.186V185.596H105.83V181.132H102.482V182.716C102.482 184.48 101.402 185.596 99.6742 185.596H98.9542V188.8H102.482V199.024C102.482 202.984 104.606 205.216 108.386 205.216ZM114.776 182.5H118.124V178.18H114.776V182.5ZM114.776 205H118.124V185.596H114.776V205ZM132.535 205.432C138.007 205.432 142.507 201.22 142.507 195.28C142.507 189.448 138.151 185.164 132.535 185.164C126.847 185.164 122.527 189.484 122.527 195.28C122.527 201.148 126.955 205.432 132.535 205.432ZM132.535 202.192C128.863 202.192 126.055 199.24 126.055 195.28C126.055 191.356 128.863 188.404 132.535 188.404C136.135 188.404 138.943 191.356 138.943 195.28C138.943 199.24 136.135 202.192 132.535 202.192ZM146.873 205H150.221V193.516C150.221 190.348 152.201 188.404 154.937 188.404C157.673 188.404 159.581 190.312 159.581 193.516V205H162.965V192.436C162.965 188.26 159.833 185.164 155.693 185.164C153.281 185.164 151.301 186.172 150.149 187.972V185.596H146.873V205Z" fill="white"/>
<path d="M2.988 246H6.516V225.912L20.628 246H23.58V219.18H20.016V238.98L5.94 219.18H2.988V246ZM38.3861 246.432C43.8581 246.432 48.3581 242.22 48.3581 236.28C48.3581 230.448 44.0021 226.164 38.3861 226.164C32.6981 226.164 28.3781 230.484 28.3781 236.28C28.3781 242.148 32.8061 246.432 38.3861 246.432ZM38.3861 243.192C34.7141 243.192 31.9061 240.24 31.9061 236.28C31.9061 232.356 34.7141 229.404 38.3861 229.404C41.9861 229.404 44.7941 232.356 44.7941 236.28C44.7941 240.24 41.9861 243.192 38.3861 243.192ZM56.8373 246H60.0413L64.6493 231.384L69.2573 246H72.4613L79.1213 226.596H75.4493L70.7693 240.816L66.2333 226.596H63.0653L58.5293 240.816L53.8853 226.596H50.1773L56.8373 246Z" fill="white"/>
<path d="M712.266 246H715.83V222.42H722.994V219.18H704.994V222.42H712.266V246ZM725.998 246H729.346V234.516C729.346 231.348 731.362 229.404 734.062 229.404C736.762 229.404 738.706 231.312 738.706 234.516V246H742.09V233.436C742.09 229.26 738.958 226.164 734.818 226.164C732.478 226.164 730.498 227.136 729.346 228.864V218.748H725.998V246ZM755.809 246.432C759.769 246.432 762.901 244.308 764.089 241.608L761.281 240.168C760.165 242.04 758.437 243.372 755.845 243.372C752.569 243.372 749.797 241.032 749.617 237.288H764.449C764.557 236.712 764.629 236.028 764.629 235.488C764.629 230.664 761.245 226.164 755.521 226.164C750.157 226.164 746.089 230.412 746.089 236.244C746.089 242.076 750.229 246.432 755.809 246.432ZM755.521 229.152C758.509 229.152 760.885 231.312 760.993 234.408H749.689C750.157 231.132 752.605 229.152 755.521 229.152ZM775.613 246H779.141V234.336H791.345V231.096H779.141V222.42H792.605V219.18H775.613V246ZM802.73 246.432C805.142 246.432 807.122 245.424 808.274 243.624V246H811.55V226.596H808.166V238.08C808.166 241.248 806.222 243.192 803.486 243.192C800.714 243.192 798.806 241.284 798.806 238.368V226.596H795.458V238.728C795.458 243.3 798.482 246.432 802.73 246.432ZM824.621 246.216C825.161 246.216 826.025 246.144 826.637 246V243.048C826.205 243.12 825.665 243.156 825.305 243.156C822.929 243.156 822.065 241.896 822.065 239.916V229.8H826.421V226.596H822.065V222.132H818.717V223.716C818.717 225.48 817.637 226.596 815.909 226.596H815.189V229.8H818.717V240.024C818.717 243.984 820.841 246.216 824.621 246.216ZM837.886 246.432C840.298 246.432 842.278 245.424 843.43 243.624V246H846.706V226.596H843.322V238.08C843.322 241.248 841.378 243.192 838.642 243.192C835.87 243.192 833.962 241.284 833.962 238.368V226.596H830.614V238.728C830.614 243.3 833.638 246.432 837.886 246.432ZM851.893 246H855.241V234.444C855.241 231.348 857.077 229.548 859.813 229.548H861.505V226.38H860.317C857.941 226.38 856.177 227.208 855.169 228.9V226.596H851.893V246ZM873.407 246.432C877.367 246.432 880.499 244.308 881.687 241.608L878.879 240.168C877.763 242.04 876.035 243.372 873.443 243.372C870.167 243.372 867.395 241.032 867.215 237.288H882.047C882.155 236.712 882.227 236.028 882.227 235.488C882.227 230.664 878.843 226.164 873.119 226.164C867.755 226.164 863.687 230.412 863.687 236.244C863.687 242.076 867.827 246.432 873.407 246.432ZM873.119 229.152C876.107 229.152 878.483 231.312 878.591 234.408H867.287C867.755 231.132 870.203 229.152 873.119 229.152Z" fill="white"/>
<path d="M761.273 205H764.837V181.42H772.001V178.18H754.001V181.42H761.273V205ZM778.55 205.432C781.394 205.432 783.734 204.28 785.102 202.48V205H788.378V191.824C788.378 187.9 785.282 185.164 780.854 185.164C777.398 185.164 774.122 187.18 773.042 189.844L775.958 191.356C776.75 189.52 778.514 188.26 780.782 188.26C783.302 188.26 785.03 189.736 785.03 191.824V192.724L778.406 193.804C774.014 194.524 772.07 196.864 772.07 199.924C772.07 203.2 774.734 205.432 778.55 205.432ZM775.598 199.816C775.598 198.16 776.642 196.936 779.162 196.504L785.03 195.532V196.756C785.03 200.032 782.582 202.588 778.946 202.588C777.002 202.588 775.598 201.4 775.598 199.816ZM793.569 205H796.917V199.168L800.229 195.676L806.673 205H810.633L802.677 193.408L810.129 185.596H805.845L796.917 194.704V177.748H793.569V205ZM822.219 205.432C826.179 205.432 829.311 203.308 830.499 200.608L827.691 199.168C826.575 201.04 824.847 202.372 822.255 202.372C818.979 202.372 816.207 200.032 816.027 196.288H830.859C830.967 195.712 831.039 195.028 831.039 194.488C831.039 189.664 827.655 185.164 821.931 185.164C816.567 185.164 812.499 189.412 812.499 195.244C812.499 201.076 816.639 205.432 822.219 205.432ZM821.931 188.152C824.919 188.152 827.295 190.312 827.403 193.408H816.099C816.567 190.132 819.015 188.152 821.931 188.152ZM844.621 205.432C850.093 205.432 854.593 201.22 854.593 195.28C854.593 189.448 850.237 185.164 844.621 185.164C838.933 185.164 834.613 189.484 834.613 195.28C834.613 201.148 839.041 205.432 844.621 205.432ZM844.621 202.192C840.949 202.192 838.141 199.24 838.141 195.28C838.141 191.356 840.949 188.404 844.621 188.404C848.221 188.404 851.029 191.356 851.029 195.28C851.029 199.24 848.221 202.192 844.621 202.192ZM860.378 205H863.762V188.8H868.37V185.596H863.762V184.228C863.762 181.744 865.31 180.808 867.542 180.808C867.83 180.808 868.478 180.844 868.838 180.916V177.928C868.406 177.82 867.65 177.748 867.146 177.748C863.402 177.748 860.378 180.052 860.378 184.228V185.596H856.67V188.8H860.378V205ZM874.335 205H877.719V188.8H882.327V185.596H877.719V184.228C877.719 181.744 879.267 180.808 881.499 180.808C881.787 180.808 882.435 180.844 882.795 180.916V177.928C882.363 177.82 881.607 177.748 881.103 177.748C877.359 177.748 874.335 180.052 874.335 184.228V185.596H870.627V188.8H874.335V205Z" fill="white"/>
<path d="M770.937 164H774.465V153.74H780.369L786.165 164H790.269L784.041 153.128C787.317 152.012 789.369 149.24 789.369 145.46C789.369 140.384 785.733 137.18 780.405 137.18H770.937V164ZM774.465 150.5V140.42H780.513C783.681 140.42 785.805 142.364 785.805 145.46C785.805 148.556 783.681 150.5 780.513 150.5H774.465ZM801.723 164.432C805.683 164.432 808.815 162.308 810.003 159.608L807.195 158.168C806.079 160.04 804.351 161.372 801.759 161.372C798.483 161.372 795.711 159.032 795.531 155.288H810.363C810.471 154.712 810.543 154.028 810.543 153.488C810.543 148.664 807.159 144.164 801.435 144.164C796.071 144.164 792.003 148.412 792.003 154.244C792.003 160.076 796.143 164.432 801.723 164.432ZM801.435 147.152C804.423 147.152 806.799 149.312 806.907 152.408H795.603C796.071 149.132 798.519 147.152 801.435 147.152ZM820.315 164.432C823.159 164.432 825.499 163.28 826.867 161.48V164H830.143V150.824C830.143 146.9 827.047 144.164 822.619 144.164C819.163 144.164 815.887 146.18 814.807 148.844L817.723 150.356C818.515 148.52 820.279 147.26 822.547 147.26C825.067 147.26 826.795 148.736 826.795 150.824V151.724L820.171 152.804C815.779 153.524 813.835 155.864 813.835 158.924C813.835 162.2 816.499 164.432 820.315 164.432ZM817.363 158.816C817.363 157.16 818.407 155.936 820.927 155.504L826.795 154.532V155.756C826.795 159.032 824.347 161.588 820.711 161.588C818.767 161.588 817.363 160.4 817.363 158.816ZM835.334 164H838.682V136.748H835.334V164ZM843.877 141.5H847.225V137.18H843.877V141.5ZM843.877 164H847.225V144.596H843.877V164ZM860.304 164.216C860.844 164.216 861.708 164.144 862.32 164V161.048C861.888 161.12 861.348 161.156 860.988 161.156C858.612 161.156 857.748 159.896 857.748 157.916V147.8H862.104V144.596H857.748V140.132H854.4V141.716C854.4 143.48 853.32 144.596 851.592 144.596H850.872V147.8H854.4V158.024C854.4 161.984 856.524 164.216 860.304 164.216ZM867.738 171.92C871.518 171.92 873.606 169.436 874.866 166.304L883.614 144.596H879.906L874.038 159.752L868.134 144.596H864.498L872.202 164.036L871.626 165.44C870.582 167.852 869.646 168.752 867.378 168.752C866.586 168.752 865.722 168.608 865.218 168.5V171.488C865.974 171.812 866.874 171.92 867.738 171.92Z" fill="white"/>
<path d="M762.676 123H777.976V119.76H766.204V96.18H762.676V123ZM787.233 123.432C790.077 123.432 792.417 122.28 793.785 120.48V123H797.061V109.824C797.061 105.9 793.965 103.164 789.537 103.164C786.081 103.164 782.805 105.18 781.725 107.844L784.641 109.356C785.433 107.52 787.197 106.26 789.465 106.26C791.985 106.26 793.713 107.736 793.713 109.824V110.724L787.089 111.804C782.697 112.524 780.753 114.864 780.753 117.924C780.753 121.2 783.417 123.432 787.233 123.432ZM784.281 117.816C784.281 116.16 785.325 114.936 787.845 114.504L793.713 113.532V114.756C793.713 118.032 791.265 120.588 787.629 120.588C785.685 120.588 784.281 119.4 784.281 117.816ZM809.128 123.432C811.54 123.432 813.52 122.424 814.672 120.624V123H817.948V103.596H814.564V115.08C814.564 118.248 812.62 120.192 809.884 120.192C807.112 120.192 805.204 118.284 805.204 115.368V103.596H801.856V115.728C801.856 120.3 804.88 123.432 809.128 123.432ZM823.135 123H826.483V111.516C826.483 108.348 828.463 106.404 831.199 106.404C833.935 106.404 835.843 108.312 835.843 111.516V123H839.227V110.436C839.227 106.26 836.095 103.164 831.955 103.164C829.543 103.164 827.563 104.172 826.411 105.972V103.596H823.135V123ZM853.018 123.432C856.834 123.432 860.11 121.2 861.334 118.212L858.346 116.7C857.41 118.824 855.502 120.192 853.018 120.192C849.454 120.192 846.754 117.24 846.754 113.316C846.754 109.32 849.454 106.404 853.018 106.404C855.466 106.404 857.446 107.808 858.346 109.824L861.334 108.384C860.11 105.36 856.798 103.164 853.018 103.164C847.294 103.164 843.226 107.484 843.226 113.28C843.226 119.04 847.294 123.432 853.018 123.432ZM865.709 123H869.057V111.516C869.057 108.348 871.073 106.404 873.773 106.404C876.473 106.404 878.417 108.312 878.417 111.516V123H881.801V110.436C881.801 106.26 878.669 103.164 874.529 103.164C872.189 103.164 870.209 104.136 869.057 105.864V95.748H865.709V123Z" fill="white"/>
<path d="M746.715 82H750.243V71.74H756.183C761.511 71.74 765.147 68.536 765.147 63.46C765.147 58.384 761.511 55.18 756.183 55.18H746.715V82ZM750.243 68.5V58.42H756.291C759.495 58.42 761.583 60.364 761.583 63.46C761.583 66.556 759.495 68.5 756.291 68.5H750.243ZM769.522 82H772.87V70.444C772.87 67.348 774.706 65.548 777.442 65.548H779.134V62.38H777.946C775.57 62.38 773.806 63.208 772.798 64.9V62.596H769.522V82ZM791.324 82.432C796.796 82.432 801.296 78.22 801.296 72.28C801.296 66.448 796.94 62.164 791.324 62.164C785.636 62.164 781.316 66.484 781.316 72.28C781.316 78.148 785.744 82.432 791.324 82.432ZM791.324 79.192C787.652 79.192 784.844 76.24 784.844 72.28C784.844 68.356 787.652 65.404 791.324 65.404C794.924 65.404 797.732 68.356 797.732 72.28C797.732 76.24 794.924 79.192 791.324 79.192ZM814.482 82.432C817.326 82.432 819.846 81.244 821.286 79.156V82H824.562V54.748H821.178V65.188C819.666 63.28 817.326 62.164 814.482 62.164C808.974 62.164 804.87 66.52 804.87 72.316C804.87 78.076 808.974 82.432 814.482 82.432ZM814.77 79.192C811.098 79.192 808.398 76.24 808.398 72.316C808.398 68.356 811.134 65.404 814.77 65.404C818.406 65.404 821.178 68.392 821.178 72.316C821.178 76.24 818.406 79.192 814.77 79.192ZM836.62 82.432C839.032 82.432 841.012 81.424 842.164 79.624V82H845.44V62.596H842.056V74.08C842.056 77.248 840.112 79.192 837.376 79.192C834.604 79.192 832.696 77.284 832.696 74.368V62.596H829.348V74.728C829.348 79.3 832.372 82.432 836.62 82.432ZM859.627 82.432C863.443 82.432 866.719 80.2 867.943 77.212L864.955 75.7C864.019 77.824 862.111 79.192 859.627 79.192C856.063 79.192 853.363 76.24 853.363 72.316C853.363 68.32 856.063 65.404 859.627 65.404C862.075 65.404 864.055 66.808 864.955 68.824L867.943 67.384C866.719 64.36 863.407 62.164 859.627 62.164C853.903 62.164 849.835 66.484 849.835 72.28C849.835 78.04 853.903 82.432 859.627 82.432ZM880.203 82.216C880.743 82.216 881.607 82.144 882.219 82V79.048C881.787 79.12 881.247 79.156 880.887 79.156C878.511 79.156 877.647 77.896 877.647 75.916V65.8H882.003V62.596H877.647V58.132H874.299V59.716C874.299 61.48 873.219 62.596 871.491 62.596H870.771V65.8H874.299V76.024C874.299 79.984 876.423 82.216 880.203 82.216Z" fill="white"/>
<path d="M2.988 123H6.516V102.912L20.628 123H23.58V96.18H20.016V115.98L5.94 96.18H2.988V123ZM34.8581 123.432C37.7021 123.432 40.0421 122.28 41.4101 120.48V123H44.6861V109.824C44.6861 105.9 41.5901 103.164 37.1621 103.164C33.7061 103.164 30.4301 105.18 29.3501 107.844L32.2661 109.356C33.0581 107.52 34.8221 106.26 37.0901 106.26C39.6101 106.26 41.3381 107.736 41.3381 109.824V110.724L34.7141 111.804C30.3221 112.524 28.3781 114.864 28.3781 117.924C28.3781 121.2 31.0421 123.432 34.8581 123.432ZM31.9061 117.816C31.9061 116.16 32.9501 114.936 35.4701 114.504L41.3381 113.532V114.756C41.3381 118.032 38.8901 120.588 35.2541 120.588C33.3101 120.588 31.9061 119.4 31.9061 117.816ZM49.8772 130.2H53.2252V120.3C54.7012 122.316 57.1492 123.432 59.9212 123.432C65.4652 123.432 69.5692 119.076 69.5692 113.316C69.5692 107.52 65.4652 103.164 59.9572 103.164C57.0412 103.164 54.6652 104.352 53.1532 106.332V103.596H49.8772V130.2ZM59.6692 120.192C56.0332 120.192 53.2252 117.24 53.2252 113.316C53.2252 109.392 56.0332 106.404 59.6692 106.404C63.3052 106.404 66.0052 109.356 66.0052 113.316C66.0052 117.24 63.3412 120.192 59.6692 120.192ZM73.9592 123H77.3072V117.168L80.6192 113.676L87.0632 123H91.0232L83.0672 111.408L90.5192 103.596H86.2352L77.3072 112.704V95.748H73.9592V123ZM94.0334 100.5H97.3814V96.18H94.0334V100.5ZM94.0334 123H97.3814V103.596H94.0334V123ZM102.576 123H105.924V111.516C105.924 108.348 107.904 106.404 110.64 106.404C113.376 106.404 115.284 108.312 115.284 111.516V123H118.668V110.436C118.668 106.26 115.536 103.164 111.396 103.164C108.984 103.164 107.004 104.172 105.852 105.972V103.596H102.576V123ZM139.294 123.432C144.514 123.432 148.186 120.372 148.186 115.944C148.186 112.38 145.99 110.004 141.778 108.708L137.278 107.376C134.722 106.584 133.498 104.928 133.498 102.984C133.498 100.5 135.442 98.916 138.322 98.916C141.418 98.916 143.866 100.536 144.982 103.524L148.006 102.264C146.746 98.592 143.11 95.748 138.286 95.748C133.426 95.748 129.97 98.844 129.97 103.2C129.97 106.584 132.094 109.32 135.982 110.508L140.914 112.02C143.326 112.74 144.658 113.928 144.658 116.196C144.658 118.68 142.534 120.264 139.366 120.264C135.91 120.264 133.21 118.356 131.95 114.9L128.89 116.16C130.186 120.264 134.146 123.432 139.294 123.432ZM152.955 123H156.303V117.168L159.615 113.676L166.059 123H170.019L162.063 111.408L169.515 103.596H165.231L156.303 112.704V95.748H152.955V123ZM181.606 123.432C185.566 123.432 188.698 121.308 189.886 118.608L187.078 117.168C185.962 119.04 184.234 120.372 181.642 120.372C178.366 120.372 175.594 118.032 175.414 114.288H190.246C190.354 113.712 190.426 113.028 190.426 112.488C190.426 107.664 187.042 103.164 181.318 103.164C175.954 103.164 171.886 107.412 171.886 113.244C171.886 119.076 176.026 123.432 181.606 123.432ZM181.318 106.152C184.306 106.152 186.682 108.312 186.79 111.408H175.486C175.954 108.132 178.402 106.152 181.318 106.152ZM202.675 123.216C203.215 123.216 204.079 123.144 204.691 123V120.048C204.259 120.12 203.719 120.156 203.359 120.156C200.983 120.156 200.119 118.896 200.119 116.916V106.8H204.475V103.596H200.119V99.132H196.771V100.716C196.771 102.48 195.691 103.596 193.963 103.596H193.243V106.8H196.771V117.024C196.771 120.984 198.895 123.216 202.675 123.216ZM217.537 123.432C221.353 123.432 224.629 121.2 225.853 118.212L222.865 116.7C221.929 118.824 220.021 120.192 217.537 120.192C213.973 120.192 211.273 117.24 211.273 113.316C211.273 109.32 213.973 106.404 217.537 106.404C219.985 106.404 221.965 107.808 222.865 109.824L225.853 108.384C224.629 105.36 221.317 103.164 217.537 103.164C211.813 103.164 207.745 107.484 207.745 113.28C207.745 119.04 211.813 123.432 217.537 123.432ZM230.229 123H233.577V111.516C233.577 108.348 235.593 106.404 238.293 106.404C240.993 106.404 242.937 108.312 242.937 111.516V123H246.321V110.436C246.321 106.26 243.189 103.164 239.049 103.164C236.709 103.164 234.729 104.136 233.577 105.864V95.748H230.229V123Z" fill="white"/>
<path d="M851.354 27.3536C851.549 27.1584 851.549 26.8418 851.354 26.6465L848.172 23.4645C847.976 23.2693 847.66 23.2693 847.464 23.4645C847.269 23.6598 847.269 23.9764 847.464 24.1716L850.293 27.0001L847.464 29.8285C847.269 30.0238 847.269 30.3403 847.464 30.5356C847.66 30.7309 847.976 30.7309 848.172 30.5356L851.354 27.3536ZM58 27.5L851 27.5001L851 26.5001L58 26.5L58 27.5Z" fill="white"/>
<path d="M724.354 68.3536C724.549 68.1583 724.549 67.8418 724.354 67.6465L721.172 64.4645C720.976 64.2693 720.66 64.2693 720.464 64.4645C720.269 64.6598 720.269 64.9764 720.464 65.1716L723.293 68.0001L720.464 70.8285C720.269 71.0237 720.269 71.3403 720.464 71.5356C720.66 71.7309 720.976 71.7309 721.172 71.5356L724.354 68.3536ZM103 68.5L724 68.5001L724 67.5001L103 67.5L103 68.5Z" fill="white"/>
<path d="M749.354 150.354C749.549 150.158 749.549 149.842 749.354 149.647L746.172 146.465C745.976 146.269 745.66 146.269 745.464 146.465C745.269 146.66 745.269 146.976 745.464 147.172L748.293 150L745.464 152.828C745.269 153.024 745.269 153.34 745.464 153.536C745.66 153.731 745.976 153.731 746.172 153.536L749.354 150.354ZM135 150.5L749 150.5L749 149.5L135 149.5L135 150.5Z" fill="white"/>
<path d="M736.354 194.354C736.549 194.158 736.549 193.842 736.354 193.646L733.172 190.464C732.976 190.269 732.66 190.269 732.464 190.464C732.269 190.66 732.269 190.976 732.464 191.172L735.293 194L732.464 196.828C732.269 197.024 732.269 197.34 732.464 197.535C732.66 197.731 732.976 197.731 733.172 197.535L736.354 194.354ZM192 194.5L736 194.5L736 193.5L192 193.5L192 194.5Z" fill="white"/>
<path d="M684.354 235.354C684.549 235.158 684.549 234.842 684.354 234.646L681.172 231.464C680.976 231.269 680.66 231.269 680.464 231.464C680.269 231.66 680.269 231.976 680.464 232.172L683.293 235L680.464 237.828C680.269 238.024 680.269 238.34 680.464 238.536C680.66 238.731 680.976 238.731 681.172 238.536L684.354 235.354ZM103 235.5H684V234.5H103V235.5Z" fill="white"/>
<path d="M742.354 109.354C742.549 109.158 742.549 108.842 742.354 108.646L739.172 105.465C738.976 105.269 738.66 105.269 738.464 105.465C738.269 105.66 738.269 105.976 738.464 106.172L741.293 109L738.464 111.828C738.269 112.024 738.269 112.34 738.464 112.536C738.66 112.731 738.976 112.731 739.172 112.536L742.354 109.354ZM274 109.5L742 109.5L742 108.5L274 108.5L274 109.5Z" fill="white"/>
</svg>
