<svg width="291" height="176" viewBox="0 0 291 176" fill="none" xmlns="http://www.w3.org/2000/svg">
<path d="M71.5 14.3878L199 88L71.5 161.612L71.5 14.3878Z" stroke="white" stroke-width="3"/>
<path d="M62 57C62 61.4183 65.5817 65 70 65C74.4183 65 78 61.4183 78 57C78 52.5817 74.4183 49 70 49C65.5817 49 62 52.5817 62 57ZM0 58.5H70V55.5H0V58.5Z" fill="white"/>
<path d="M291 88L276 79.3397V96.6603L291 88ZM197 89.5H277.5V86.5H197V89.5Z" fill="white"/>
<path d="M62 119C62 123.418 65.5817 127 70 127C74.4183 127 78 123.418 78 119C78 114.582 74.4183 111 70 111C65.5817 111 62 114.582 62 119ZM0 120.5H70V117.5H0V120.5Z" fill="white"/>
</svg>
