<svg width="764" height="207" viewBox="0 0 764 207" fill="none" xmlns="http://www.w3.org/2000/svg">
<circle cx="660.5" cy="103.5" r="102" stroke="white" stroke-width="3"/>
<circle cx="660.5" cy="103.5" r="63" stroke="white" stroke-width="3"/>
<circle cx="660.5" cy="103.5" r="83" stroke="white" stroke-width="3"/>
<path d="M610.667 59C610.667 61.9455 613.055 64.3333 616 64.3333C618.945 64.3333 621.333 61.9455 621.333 59C621.333 56.0545 618.945 53.6667 616 53.6667C613.055 53.6667 610.667 56.0545 610.667 59ZM0 60H616V58H0V60Z" fill="white"/>
<path d="M572.667 104C572.667 106.946 575.054 109.333 578 109.333C580.946 109.333 583.333 106.946 583.333 104C583.333 101.055 580.946 98.6667 578 98.6667C575.054 98.6667 572.667 101.055 572.667 104ZM72 105L578 105L578 103L72 103L72 105Z" fill="white"/>
<path d="M565.667 152C565.667 154.946 568.054 157.333 571 157.333C573.946 157.333 576.333 154.946 576.333 152C576.333 149.055 573.946 146.667 571 146.667C568.054 146.667 565.667 149.055 565.667 152ZM203 153L571 153L571 151L203 151L203 153Z" fill="white"/>
</svg>
